<?xml version="1.0" encoding="UTF-8" standalone="no"?>
<!-- Created with Inkscape (http://www.inkscape.org/) -->

<svg
   version="1.1"
   id="svg453"
   xml:space="preserve"
   width="32"
   height="32"
   viewBox="0 0 32 32"
   xmlns="http://www.w3.org/2000/svg"
   xmlns:svg="http://www.w3.org/2000/svg"><defs
     id="defs457"><clipPath
       clipPathUnits="userSpaceOnUse"
       id="clipPath467"><path
         d="M 0,24 H 24 V 0 H 0 Z"
         id="path465" /></clipPath></defs><g
     id="g459"
     transform="matrix(1.3333333,0,0,-1.3333333,0,32)"><g
       id="g461"><g
         id="g463"
         clip-path="url(#clipPath467)"><g
           id="g469"
           transform="translate(17.6133,9.7383)"><path
             d="m 0,0 -3.176,-3.176 c -3.624,1.384 -6.298,3.948 -7.875,7.875 l 3.176,3.176 -4.851,4.851 -2.464,-2.464 c -0.966,-0.964 -1.423,-2.235 -1.423,-3.5 0,-7 9,-15.5 15.5,-15.5 1.265,0 2.536,0.458 3.5,1.423 l 2.464,2.463 z"
             style="fill:none;stroke:#000000;stroke-width:2;stroke-linecap:butt;stroke-linejoin:miter;stroke-miterlimit:10;stroke-dasharray:none;stroke-opacity:1"
             id="path471" /></g><g
           id="g473"
           transform="translate(23,14)"><path
             d="M 0,0 C 0,4.971 -4.029,9 -9,9"
             style="fill:none;stroke:#000000;stroke-width:2;stroke-linecap:butt;stroke-linejoin:miter;stroke-miterlimit:10;stroke-dasharray:none;stroke-opacity:1"
             id="path475" /></g><g
           id="g477"
           transform="translate(19,14)"><path
             d="M 0,0 C 0,2.761 -2.239,5 -5,5"
             style="fill:none;stroke:#000000;stroke-width:2;stroke-linecap:butt;stroke-linejoin:miter;stroke-miterlimit:10;stroke-dasharray:none;stroke-opacity:1"
             id="path479" /></g></g></g></g></svg>
